<?xml version="1.0" encoding="utf-8"?>
<!-- Generator: Adobe Illustrator 23.0.3, SVG Export Plug-In . SVG Version: 6.00 Build 0)  -->
<svg version="1.1" id="Layer_1" xmlns="http://www.w3.org/2000/svg" xmlns:xlink="http://www.w3.org/1999/xlink" x="0px" y="0px"
	 viewBox="0 0 651.9 100.3" style="enable-background:new 0 0 651.9 100.3;" xml:space="preserve">
<style type="text/css">
	.st0{fill:#333333;}
	.st1{fill:#FF9343;}
</style>
<title>spreadshop_main</title>
<g>
	<path class="st0" d="M422.5,9.2V34c-3.7-5.2-8.7-7.9-14.8-7.9c-3-0.1-6,0.6-8.7,1.9c-2.5,1.3-4.7,3.1-6.5,5.3
		c-1.8,2.5-3.2,5.3-4,8.2c-1,3.4-1.4,6.9-1.4,10.4c-0.1,3.8,0.5,7.6,1.6,11.3c0.9,3.1,2.5,5.9,4.5,8.4c1.8,2.3,4.1,4.1,6.8,5.3
		c2.7,1.2,5.7,1.9,8.7,1.8c6.2,0,10.9-2.5,13.9-7.4l0.1,6.1h12.8V9.2H422.5z M420,64.1c-2,2.5-4.9,4-8.1,4c-3.2,0-6.3-1.5-8.1-4.2
		c-2.1-2.8-3.1-6.5-3.1-10.9c0-10.3,3.8-15.4,11.4-15.5c7.4,0,11.1,5.4,11.1,16.2C423.4,57.4,422.2,61.1,420,64.1z"/>
	<path class="st0" d="M376.2,31.3c-1.9-1.8-4.1-3.1-6.6-3.8c-3.2-0.9-6.6-1.4-10-1.3c-3.4-0.1-6.9,0.4-10.2,1.3
		c-2.5,0.7-4.8,1.9-6.7,3.6c-1.7,1.5-3,3.4-3.8,5.6c-0.8,2.3-1.2,4.7-1.3,7.1h12.3c0.2-2,1.1-3.9,2.5-5.4c1.3-1.4,3.5-2,6.6-2
		c2.2-0.1,4.3,0.4,6.2,1.4c2.2,1.3,3,4.1,1.7,6.3c-0.3,0.5-0.6,0.9-1.1,1.3c-1.1,0.8-3.4,1.4-6.7,1.9s-6.4,1-9.2,1.6
		c-2.6,0.5-5,1.4-7.3,2.7c-2,1.2-3.7,2.9-4.8,5c-1.3,2.7-1.9,5.6-1.7,8.6c-0.1,3.7,1.3,7.3,4,9.9c2.7,2.5,6.9,3.8,12.6,3.8
		c3,0.1,6.1-0.5,8.9-1.6c2.4-0.9,4.5-2.3,6.2-4.2c0.1,1.5,0.4,3,0.8,4.5l12.3-0.1V45.9c0-2.8-0.3-5.7-1.1-8.4
		C379.1,35.2,377.9,33,376.2,31.3z M367.6,58.5c0,1.5-0.3,2.9-1,4.2c-0.6,1.3-1.5,2.4-2.5,3.4c-1.1,1-2.4,1.8-3.8,2.3
		c-1.5,0.6-3.1,0.9-4.7,0.9c-4.3,0-6.4-1.9-6.4-5.6c-0.1-1.9,0.7-3.7,2.1-5c1.4-1.1,4-2.1,7.8-2.8c2.4-0.5,4.3-0.9,5.6-1.3
		c1.1-0.3,2.1-0.9,2.9-1.6V58.5z"/>
	<path class="st0" d="M184.7,52c-2.3-1.3-4.7-2.3-7.2-3c-3-0.9-6.7-1.9-11-3.1c-2.1-0.5-4.2-1.3-6.1-2.3c-1.8-0.8-2.6-2.9-1.8-4.7
		c0,0,0,0,0,0c0.4-0.8,1-1.4,1.8-1.8c2-0.8,4.1-1.1,6.2-1c2.2-0.1,4.5,0.4,6.4,1.6c1.5,1.3,2.4,3.1,2.6,5l12.8-0.2
		c-0.4-5.2-2.2-9.2-5.5-12.1s-8.6-4.4-15.8-4.4c-3.4,0-6.7,0.4-10,1.2c-2.4,0.6-4.6,1.7-6.6,3.1c-1.6,1.2-2.9,2.7-3.7,4.5
		c-0.8,1.7-1.2,3.5-1.2,5.4c0,1.9,0.3,3.9,0.9,5.7c0.6,1.9,1.8,3.5,3.3,4.7c2.1,1.7,4.4,3,6.9,3.9c3.8,1.4,7.8,2.6,11.8,3.4
		c2.1,0.4,4.2,1.1,6.1,2.1c1.4,0.9,2.1,2.4,2,4c0,1.7-1.1,3.1-2.7,3.6c-2,0.9-4.3,1.3-6.5,1.2c-2.6,0.1-5.1-0.5-7.3-1.9
		c-1.8-1.2-2.9-3.3-2.8-5.5h-13.6c0.1,2.5,0.7,5,1.8,7.2c1.2,2.2,2.8,4.1,4.8,5.5c2.3,1.6,4.8,2.8,7.5,3.5c3.2,0.8,6.5,1.2,9.8,1.2
		c7.3,0,12.9-1.5,16.6-4.4c3.6-2.6,5.6-6.7,5.6-11.1c0.1-2.4-0.3-4.8-1.2-7C187.8,54.5,186.4,53,184.7,52z"/>
	<path class="st0" d="M238.6,33.3c-3.8-4.6-9.5-7.3-15.5-7.1c-6.2,0-10.9,2.5-13.9,7.4l-0.1-6.1h-12.8v68.4h13V71
		c3.3,5,8.9,7.9,14.8,7.8c3,0.1,6-0.6,8.7-1.9c2.5-1.3,4.7-3.1,6.5-5.3c1.8-2.5,3.2-5.2,4-8.2c1-3.4,1.4-6.9,1.4-10.4
		c0.1-3.8-0.5-7.6-1.6-11.3C242.1,38.6,240.6,35.8,238.6,33.3z M219.7,67.6c-7.4,0-11.1-5.4-11.1-16.2c-0.2-3.7,1-7.4,3.2-10.4
		c1.9-2.5,4.9-4,8.1-4c3.2,0,6.3,1.5,8.1,4.2c2.1,2.8,3.1,6.5,3.1,10.9C231.1,62.4,227.3,67.5,219.7,67.6L219.7,67.6z"/>
	<path class="st0" d="M325.7,33.6c-4-5-9.8-7.4-17.5-7.4c-3.5-0.1-7,0.5-10.3,1.8c-2.9,1.1-5.5,2.8-7.6,5.1c-2.1,2.3-3.7,5-4.7,8
		c-1.1,3.4-1.7,6.9-1.6,10.5c0,18.2,8.3,27.2,25,27.2c4.9,0.1,9.8-1.3,13.8-4.2c4-2.9,6.9-7.1,8.1-11.9h-13.6
		c-0.5,1.7-1.6,3.2-3.2,4.1c-1.7,1-3.7,1.5-5.7,1.5c-3,0.1-5.9-1.1-7.9-3.3c-2.1-2.5-3.3-5.7-3.3-9h34.5
		C331.7,46,329.7,38.6,325.7,33.6z M297.5,47.6c0.1-3,1.3-5.9,3.3-8.1c1.8-1.9,4.2-2.9,6.8-2.9c1.3,0,2.6,0.2,3.8,0.7
		c1.2,0.4,2.3,1.1,3.2,2c1,1,1.8,2.1,2.3,3.4c0.6,1.5,0.9,3.2,1,4.8L297.5,47.6z"/>
	<path class="st0" d="M274.7,26.4c-1.3,0.1-2.6,0.5-3.8,1c-1.3,0.5-2.6,1.3-3.7,2.2c-1.3,1.1-2.5,2.5-3.4,4v-6h-12.4v50l13.2-0.1
		v-26c0-8.1,4-12.1,12.1-12.1c1.2,0,2.5,0.1,3.7,0.3V26.2h-1.7C277.3,26.2,276,26.3,274.7,26.4z"/>
	<path class="st1" d="M60.8,21.3L39.5,0L0,39.5l60.8,60.8l60.9-60.8L82.2,0L60.8,21.3z M60.8,82.1L18.2,39.5l21.3-21.3l21.3,21.3
		L82,18.3l21.4,21.3L60.8,82.1z"/>
	<path class="st1" d="M590.2,33.2c-2.3-2.3-5.1-4.1-8.1-5.3c-3.4-1.3-7-2-10.7-1.9c-3.7-0.1-7.4,0.6-10.8,1.9
		c-3.1,1.2-5.8,3-8.1,5.4c-2.3,2.4-4.1,5.3-5.2,8.4c-1.2,3.5-1.8,7.2-1.8,10.9c0,3.7,0.6,7.3,1.7,10.8c2.1,6.4,7,11.4,13.2,13.9
		c3.5,1.4,7.2,2,11,1.9c3.6,0,7.2-0.6,10.6-1.9c3.1-1.2,5.8-3,8.1-5.4c2.3-2.4,4-5.3,5.1-8.4c1.2-3.5,1.8-7.2,1.8-10.9
		c0.1-3.7-0.6-7.5-1.8-11C594.2,38.4,592.5,35.6,590.2,33.2z M571.5,67.9c-8.1,0-12.2-5.1-12.2-15.4s4.1-15.3,12.2-15.3
		s12.2,5.1,12.2,15.3S579.6,67.9,571.5,67.9z"/>
	<path class="st1" d="M650.3,41.7c-0.9-3.1-2.5-5.9-4.5-8.4c-3.8-4.6-9.5-7.3-15.5-7.1c-6.2,0-10.9,2.5-13.9,7.4l-0.1-6.1h-12.8
		v68.4h13V71c3.3,5,8.9,7.9,14.8,7.8c3,0.1,6-0.6,8.7-1.9c2.5-1.3,4.7-3.1,6.5-5.3c1.8-2.5,3.2-5.3,4-8.2c1-3.4,1.4-6.9,1.4-10.4
		C652,49.2,651.4,45.4,650.3,41.7z M626.9,67.6c-7.4,0-11.1-5.4-11.1-16.2c-0.2-3.7,1-7.4,3.2-10.4c1.9-2.5,4.9-4,8.1-4
		c3.2,0,6.3,1.5,8.1,4.2c2.1,2.8,3.1,6.5,3.1,10.9C638.3,62.4,634.5,67.5,626.9,67.6L626.9,67.6z"/>
	<path class="st1" d="M482.3,52.2c-2.3-1.3-4.7-2.3-7.2-3c-3-0.8-6.6-1.9-11-3.1c-2.1-0.5-4.2-1.3-6.1-2.3c-1.3-0.6-2.1-1.8-2.1-3.2
		c-0.1-1.4,0.8-2.8,2.1-3.3c2-0.7,4.1-1.1,6.2-1c2.8,0,5,0.5,6.4,1.6c1.5,1.3,2.4,3.1,2.6,5l12.8-0.2c-0.1-4.6-2.1-9-5.5-12.1
		c-3.3-2.9-8.6-4.4-15.8-4.4c-3.4-0.1-6.7,0.3-10,1.2c-2.4,0.6-4.6,1.7-6.6,3.1c-1.6,1.2-2.9,2.7-3.7,4.5c-0.8,1.7-1.2,3.5-1.2,5.4
		c0,1.9,0.3,3.9,0.9,5.7c0.7,1.8,1.8,3.4,3.3,4.7c2.1,1.7,4.4,3,6.9,3.9c3.8,1.4,7.8,2.6,11.8,3.4c2.1,0.4,4.2,1.1,6.1,2.1
		c1.3,0.9,2.1,2.4,2,4c0,1.7-1.1,3.1-2.7,3.6c-2.1,0.8-4.3,1.2-6.5,1.2c-2.6,0.1-5.1-0.6-7.3-1.9c-1.8-1.2-2.9-3.3-2.8-5.5h-13.6
		c0,5,2.5,9.7,6.6,12.6c2.3,1.6,4.8,2.8,7.5,3.5c3.2,0.9,6.5,1.3,9.8,1.2c7.3,0,12.8-1.5,16.6-4.4c3.5-2.6,5.6-6.7,5.6-11.1
		c0.1-2.4-0.3-4.7-1.2-6.9C485.4,54.7,484,53.2,482.3,52.2z"/>
	<path class="st1" d="M534.3,30.4c-3.2-2.8-7.4-4.2-12.5-4.2c-3.2,0-6.3,0.8-9.1,2.2c-1.2,0.7-2.4,1.5-3.4,2.5
		c-0.9,0.9-1.7,1.9-2.2,3.1V9.2h-13.2v68.4h13.2V48.8c0-1.6,0.2-3.2,0.7-4.7c0.4-1.4,1.1-2.7,2-3.9c0.9-1.1,2-2,3.2-2.6
		c1.4-0.7,2.9-1,4.4-1c3,0,5.2,0.7,6.6,2.1c1.3,1.4,2,4,2,7.8v31h13.1V42.1C539.1,37.1,537.5,33.2,534.3,30.4z"/>
</g>
</svg>
